<mxfile host="Electron" agent="Mozilla/5.0 (Macintosh; Intel Mac OS X 10_15_7) AppleWebKit/537.36 (KHTML, like Gecko) draw.io/24.7.8 Chrome/128.0.6613.36 Electron/32.0.1 Safari/537.36" version="24.7.8">
  <diagram name="Page-1" id="eAD4EfqEpFcr-NgBJOAr">
    <mxGraphModel dx="2257" dy="874" grid="1" gridSize="10" guides="1" tooltips="1" connect="1" arrows="1" fold="1" page="1" pageScale="1" pageWidth="827" pageHeight="1169" math="0" shadow="0">
      <root>
        <mxCell id="0" />
        <mxCell id="1" parent="0" />
        <mxCell id="HUpHHF9_Y6m_QfCVgTMH-25" value="" style="rounded=1;whiteSpace=wrap;html=1;arcSize=2;fillColor=#dae8fc;strokeColor=#6c8ebf;" vertex="1" parent="1">
          <mxGeometry x="290" y="150" width="490" height="450" as="geometry" />
        </mxCell>
        <mxCell id="HUpHHF9_Y6m_QfCVgTMH-1" value="RESTful API" style="rounded=1;whiteSpace=wrap;html=1;" vertex="1" parent="1">
          <mxGeometry x="120" y="240" width="120" height="60" as="geometry" />
        </mxCell>
        <mxCell id="HUpHHF9_Y6m_QfCVgTMH-2" value="Job registration worker" style="swimlane;fontStyle=0;childLayout=stackLayout;horizontal=1;startSize=30;horizontalStack=0;resizeParent=1;resizeParentMax=0;resizeLast=0;collapsible=1;marginBottom=0;whiteSpace=wrap;html=1;rounded=1;arcSize=12;" vertex="1" parent="1">
          <mxGeometry x="320" y="241" width="160" height="60" as="geometry" />
        </mxCell>
        <mxCell id="HUpHHF9_Y6m_QfCVgTMH-3" value="Saves job in database" style="text;strokeColor=none;fillColor=none;align=left;verticalAlign=middle;spacingLeft=4;spacingRight=4;overflow=hidden;points=[[0,0.5],[1,0.5]];portConstraint=eastwest;rotatable=0;whiteSpace=wrap;html=1;" vertex="1" parent="HUpHHF9_Y6m_QfCVgTMH-2">
          <mxGeometry y="30" width="160" height="30" as="geometry" />
        </mxCell>
        <mxCell id="HUpHHF9_Y6m_QfCVgTMH-6" value="Preprocessing worker" style="swimlane;fontStyle=0;childLayout=stackLayout;horizontal=1;startSize=30;horizontalStack=0;resizeParent=1;resizeParentMax=0;resizeLast=0;collapsible=1;marginBottom=0;whiteSpace=wrap;html=1;rounded=1;arcSize=12;" vertex="1" parent="1">
          <mxGeometry x="570" y="240" width="150" height="60" as="geometry">
            <mxRectangle x="530" y="240" width="160" height="30" as="alternateBounds" />
          </mxGeometry>
        </mxCell>
        <mxCell id="HUpHHF9_Y6m_QfCVgTMH-7" value="Does nothing" style="text;strokeColor=none;fillColor=none;align=left;verticalAlign=middle;spacingLeft=4;spacingRight=4;overflow=hidden;points=[[0,0.5],[1,0.5]];portConstraint=eastwest;rotatable=0;whiteSpace=wrap;html=1;" vertex="1" parent="HUpHHF9_Y6m_QfCVgTMH-6">
          <mxGeometry y="30" width="150" height="30" as="geometry" />
        </mxCell>
        <mxCell id="HUpHHF9_Y6m_QfCVgTMH-10" value="Execution worker" style="swimlane;fontStyle=0;childLayout=stackLayout;horizontal=1;startSize=30;horizontalStack=0;resizeParent=1;resizeParentMax=0;resizeLast=0;collapsible=1;marginBottom=0;whiteSpace=wrap;html=1;rounded=1;arcSize=12;" vertex="1" parent="1">
          <mxGeometry x="580" y="403" width="140" height="130" as="geometry" />
        </mxCell>
        <mxCell id="HUpHHF9_Y6m_QfCVgTMH-11" value="Parses the OpenPulse into instrument&#39;s native instructions" style="text;strokeColor=default;fillColor=none;align=left;verticalAlign=middle;spacingLeft=4;spacingRight=4;overflow=hidden;points=[[0,0.5],[1,0.5]];portConstraint=eastwest;rotatable=0;whiteSpace=wrap;html=1;" vertex="1" parent="HUpHHF9_Y6m_QfCVgTMH-10">
          <mxGeometry y="30" width="140" height="60" as="geometry" />
        </mxCell>
        <mxCell id="HUpHHF9_Y6m_QfCVgTMH-12" value="Runs instructions on instrument" style="text;strokeColor=none;fillColor=none;align=left;verticalAlign=middle;spacingLeft=4;spacingRight=4;overflow=hidden;points=[[0,0.5],[1,0.5]];portConstraint=eastwest;rotatable=0;whiteSpace=wrap;html=1;" vertex="1" parent="HUpHHF9_Y6m_QfCVgTMH-10">
          <mxGeometry y="90" width="140" height="40" as="geometry" />
        </mxCell>
        <mxCell id="HUpHHF9_Y6m_QfCVgTMH-14" value="Postprocessing worker" style="swimlane;fontStyle=0;childLayout=stackLayout;horizontal=1;startSize=30;horizontalStack=0;resizeParent=1;resizeParentMax=0;resizeLast=0;collapsible=1;marginBottom=0;whiteSpace=wrap;html=1;rounded=1;arcSize=14;" vertex="1" parent="1">
          <mxGeometry x="310" y="398" width="170" height="140" as="geometry" />
        </mxCell>
        <mxCell id="HUpHHF9_Y6m_QfCVgTMH-15" value="May discriminate results" style="text;strokeColor=default;fillColor=none;align=left;verticalAlign=middle;spacingLeft=4;spacingRight=4;overflow=hidden;points=[[0,0.5],[1,0.5]];portConstraint=eastwest;rotatable=0;whiteSpace=wrap;html=1;" vertex="1" parent="HUpHHF9_Y6m_QfCVgTMH-14">
          <mxGeometry y="30" width="170" height="30" as="geometry" />
        </mxCell>
        <mxCell id="HUpHHF9_Y6m_QfCVgTMH-31" style="edgeStyle=orthogonalEdgeStyle;rounded=0;orthogonalLoop=1;jettySize=auto;html=1;exitX=0;exitY=0.5;exitDx=0;exitDy=0;" edge="1" parent="HUpHHF9_Y6m_QfCVgTMH-14" source="HUpHHF9_Y6m_QfCVgTMH-16">
          <mxGeometry relative="1" as="geometry">
            <mxPoint x="-270" y="79.72413793103442" as="targetPoint" />
          </mxGeometry>
        </mxCell>
        <mxCell id="HUpHHF9_Y6m_QfCVgTMH-16" value="Saves results in database" style="text;strokeColor=default;fillColor=none;align=left;verticalAlign=middle;spacingLeft=4;spacingRight=4;overflow=hidden;points=[[0,0.5],[1,0.5]];portConstraint=eastwest;rotatable=0;whiteSpace=wrap;html=1;" vertex="1" parent="HUpHHF9_Y6m_QfCVgTMH-14">
          <mxGeometry y="60" width="170" height="40" as="geometry" />
        </mxCell>
        <mxCell id="HUpHHF9_Y6m_QfCVgTMH-21" value="Sends results to the public API application" style="text;strokeColor=none;fillColor=none;align=left;verticalAlign=middle;spacingLeft=4;spacingRight=4;overflow=hidden;points=[[0,0.5],[1,0.5]];portConstraint=eastwest;rotatable=0;whiteSpace=wrap;html=1;" vertex="1" parent="HUpHHF9_Y6m_QfCVgTMH-14">
          <mxGeometry y="100" width="170" height="40" as="geometry" />
        </mxCell>
        <mxCell id="HUpHHF9_Y6m_QfCVgTMH-17" style="edgeStyle=orthogonalEdgeStyle;rounded=0;orthogonalLoop=1;jettySize=auto;html=1;entryX=0.022;entryY=-0.041;entryDx=0;entryDy=0;entryPerimeter=0;" edge="1" parent="1" source="HUpHHF9_Y6m_QfCVgTMH-1" target="HUpHHF9_Y6m_QfCVgTMH-3">
          <mxGeometry relative="1" as="geometry" />
        </mxCell>
        <mxCell id="HUpHHF9_Y6m_QfCVgTMH-18" style="edgeStyle=orthogonalEdgeStyle;rounded=0;orthogonalLoop=1;jettySize=auto;html=1;entryX=0.018;entryY=0.051;entryDx=0;entryDy=0;entryPerimeter=0;" edge="1" parent="1" source="HUpHHF9_Y6m_QfCVgTMH-2" target="HUpHHF9_Y6m_QfCVgTMH-7">
          <mxGeometry relative="1" as="geometry" />
        </mxCell>
        <mxCell id="HUpHHF9_Y6m_QfCVgTMH-19" style="edgeStyle=orthogonalEdgeStyle;rounded=0;orthogonalLoop=1;jettySize=auto;html=1;entryX=0.456;entryY=0.009;entryDx=0;entryDy=0;entryPerimeter=0;exitX=0.492;exitY=0.97;exitDx=0;exitDy=0;exitPerimeter=0;" edge="1" parent="1" source="HUpHHF9_Y6m_QfCVgTMH-7" target="HUpHHF9_Y6m_QfCVgTMH-10">
          <mxGeometry relative="1" as="geometry" />
        </mxCell>
        <mxCell id="HUpHHF9_Y6m_QfCVgTMH-20" style="edgeStyle=orthogonalEdgeStyle;rounded=0;orthogonalLoop=1;jettySize=auto;html=1;exitX=0;exitY=0.5;exitDx=0;exitDy=0;entryX=0.989;entryY=0.114;entryDx=0;entryDy=0;entryPerimeter=0;" edge="1" parent="1" source="HUpHHF9_Y6m_QfCVgTMH-11" target="HUpHHF9_Y6m_QfCVgTMH-16">
          <mxGeometry relative="1" as="geometry" />
        </mxCell>
        <mxCell id="HUpHHF9_Y6m_QfCVgTMH-22" value="" style="endArrow=classic;html=1;rounded=0;entryX=0;entryY=0.5;entryDx=0;entryDy=0;" edge="1" parent="1" target="HUpHHF9_Y6m_QfCVgTMH-1">
          <mxGeometry width="50" height="50" relative="1" as="geometry">
            <mxPoint x="40" y="270" as="sourcePoint" />
            <mxPoint x="100" y="290" as="targetPoint" />
          </mxGeometry>
        </mxCell>
        <mxCell id="HUpHHF9_Y6m_QfCVgTMH-23" value="OpenPulse quantum experiment from SDK" style="text;html=1;align=center;verticalAlign=middle;whiteSpace=wrap;rounded=0;" vertex="1" parent="1">
          <mxGeometry x="-100" y="250" width="130" height="30" as="geometry" />
        </mxCell>
        <mxCell id="HUpHHF9_Y6m_QfCVgTMH-26" value="Quantum jobs queue" style="text;html=1;align=center;verticalAlign=middle;whiteSpace=wrap;rounded=0;" vertex="1" parent="1">
          <mxGeometry x="310" y="160" width="120" height="30" as="geometry" />
        </mxCell>
        <mxCell id="HUpHHF9_Y6m_QfCVgTMH-27" value="&lt;div&gt;database&lt;/div&gt;" style="strokeWidth=2;html=1;shape=mxgraph.flowchart.database;whiteSpace=wrap;" vertex="1" parent="1">
          <mxGeometry x="480" y="320" width="60" height="60" as="geometry" />
        </mxCell>
        <mxCell id="HUpHHF9_Y6m_QfCVgTMH-28" style="edgeStyle=orthogonalEdgeStyle;rounded=0;orthogonalLoop=1;jettySize=auto;html=1;entryX=0.5;entryY=0;entryDx=0;entryDy=0;entryPerimeter=0;" edge="1" parent="1" source="HUpHHF9_Y6m_QfCVgTMH-3" target="HUpHHF9_Y6m_QfCVgTMH-27">
          <mxGeometry relative="1" as="geometry" />
        </mxCell>
        <mxCell id="HUpHHF9_Y6m_QfCVgTMH-29" style="edgeStyle=orthogonalEdgeStyle;rounded=0;orthogonalLoop=1;jettySize=auto;html=1;entryX=0.418;entryY=0.962;entryDx=0;entryDy=0;entryPerimeter=0;" edge="1" parent="1" source="HUpHHF9_Y6m_QfCVgTMH-15" target="HUpHHF9_Y6m_QfCVgTMH-27">
          <mxGeometry relative="1" as="geometry" />
        </mxCell>
        <mxCell id="HUpHHF9_Y6m_QfCVgTMH-32" value="Results to the public API application" style="text;html=1;align=center;verticalAlign=middle;whiteSpace=wrap;rounded=0;" vertex="1" parent="1">
          <mxGeometry x="-100" y="460" width="130" height="30" as="geometry" />
        </mxCell>
      </root>
    </mxGraphModel>
  </diagram>
</mxfile>
